# xmcd
#
# Track frame offsets: 
#        150
#        6148
#        26863
#        57790
#        62192
#        81421
#        123191
#        147059
#        183443
#        234971
#        283840
#        333789
#
# Disc length: 4558 seconds
#
# Revision: 0
# Processed by: cddbd v1.5.2PL0 Copyright (c) Steve Scherf et al.
# Submitted via: ExactAudioCopy v0.95b3
#
DISCID=a211cc0c
DTITLE=Joe Bonamassa - Live From The Royal Albert Hall CD2 (DVD)
DYEAR=2009
DGENRE=Blues
TTITLE0=I First Met B.B. King... 
TTITLE1=Lonesome Road Blues
TTITLE2=Happier Times
TTITLE3=Introducing Paul Jones
TTITLE4=Your Funeral My Trial 
TTITLE5=Blues Deluxe 
TTITLE6=Story of a Quarryman 
TTITLE7=The Great Flood
TTITLE8=Just Got Paid
TTITLE9=Mountain Time
TTITLE10=Asking Around for You
TTITLE11=Closing Credits
EXTD=
EXTT0=
EXTT1=
EXTT2=
EXTT3=
EXTT4=
EXTT5=
EXTT6=
EXTT7=
EXTT8=
EXTT9=
EXTT10=
EXTT11=
PLAYORDER=
